<svg data-v-423bf9ae="" xmlns="http://www.w3.org/2000/svg" viewBox="0 0 357.1339369341243 60" class="font"><!----><!----><!----><g data-v-423bf9ae="" id="c7292192-c39d-40d8-9701-ae15a1985f92" fill="white" transform="matrix(4.795504093170166,0,0,4.795504093170166,-2.210420846939087,-1.7421159744262695)"><path d="M4.61 10.05C7.21 10.05 8.75 8.37 8.75 5.54C8.75 2.70 7.21 1.02 4.61 1.02C2.00 1.02 0.46 2.70 0.46 5.54C0.46 8.37 2.00 10.05 4.61 10.05ZM4.61 8.61C3.07 8.61 2.18 7.48 2.18 5.54C2.18 3.60 3.07 2.46 4.61 2.46C6.13 2.46 7.03 3.60 7.03 5.54C7.03 7.48 6.13 8.61 4.61 8.61ZM13.76 3.37C12.85 3.37 12.04 3.70 11.47 4.23L11.26 3.67C11.13 3.28 9.88 3.25 9.88 3.78L9.88 12.46C9.88 13.01 11.54 13.01 11.54 12.46L11.54 9.30C12.11 9.77 12.89 10.04 13.76 10.04C15.26 10.04 16.25 8.74 16.25 6.73C16.25 4.72 15.26 3.37 13.76 3.37ZM13.05 8.61C12.50 8.60 11.98 8.37 11.54 7.95L11.54 5.50C11.97 5.05 12.50 4.82 13.05 4.80C14.07 4.80 14.60 5.46 14.60 6.72C14.60 7.95 14.07 8.61 13.05 8.61ZM23.58 6.23C23.58 4.38 22.55 3.37 20.51 3.37C18.38 3.37 17.28 4.66 17.28 6.66C17.28 9.04 19.00 10.04 20.72 10.04C21.50 10.04 22.25 9.83 22.89 9.42C23.28 9.17 23.28 8.02 22.76 8.25C22.05 8.57 21.43 8.75 20.85 8.75C19.87 8.75 18.96 8.27 18.93 7.28C19.31 7.34 19.73 7.36 20.10 7.36C21.87 7.36 23.58 6.89 23.58 6.23ZM18.96 6.10C18.97 5.03 19.68 4.62 20.58 4.62C21.56 4.62 22.08 5.08 22.08 5.77C22.08 5.98 21.17 6.16 20.01 6.16C19.67 6.16 19.32 6.15 18.96 6.10ZM31.64 8.57C31.51 8.62 31.42 8.64 31.32 8.64C31.04 8.64 30.90 8.44 30.90 8.04L30.90 7.52L30.90 5.73C30.90 4.26 30.04 3.37 28.64 3.37C27.71 3.37 26.84 3.71 26.15 4.38L25.93 3.67C25.79 3.29 24.56 3.25 24.56 3.78L24.56 9.63C24.56 10.19 26.19 10.19 26.19 9.63L26.19 5.77C26.80 5.08 27.40 4.82 27.96 4.82C28.80 4.82 29.26 5.26 29.26 6.30L29.26 7.20L29.26 8.29C29.26 9.65 29.82 10.11 30.55 10.11C30.90 10.11 31.26 10.01 31.64 9.87C32.23 9.62 32.20 8.29 31.64 8.57ZM39.03 1.13L32.05 1.13C31.39 1.13 32.09 2.58 32.75 2.58L34.72 2.58L34.72 9.63C34.72 10.19 36.48 10.19 36.48 9.63L36.48 2.58L39.03 2.58C39.58 2.58 39.58 1.13 39.03 1.13ZM42.03 10.05C44.11 10.05 45.33 8.82 45.33 6.72C45.33 4.61 44.11 3.36 42.03 3.36C39.94 3.36 38.72 4.61 38.72 6.72C38.72 8.82 39.94 10.05 42.03 10.05ZM42.03 8.82C40.98 8.82 40.36 8.06 40.36 6.72C40.36 5.35 40.98 4.59 42.03 4.59C43.08 4.59 43.69 5.35 43.69 6.72C43.69 8.06 43.08 8.82 42.03 8.82ZM54.35 1.50C53.83 3.57 53.28 5.53 52.49 7.57C51.72 5.54 51.16 3.56 50.64 1.50C50.47 0.88 48.71 0.88 48.86 1.50C49.10 2.32 49.38 3.25 49.67 4.17C49.28 5.31 48.83 6.44 48.31 7.57C47.54 5.54 47.00 3.56 46.45 1.50C46.30 0.88 44.53 0.88 44.69 1.50C45.58 4.61 47.11 9.04 47.78 9.84C48.06 10.14 48.59 10.14 48.86 9.84C49.14 9.48 49.81 7.99 50.41 6.36C51.02 8.04 51.60 9.42 51.95 9.84C52.23 10.14 52.77 10.14 53.03 9.84C53.69 9.04 55.24 4.61 56.13 1.50C56.29 0.90 54.52 0.88 54.35 1.50ZM59.05 10.05C61.14 10.05 62.36 8.82 62.36 6.72C62.36 4.61 61.14 3.36 59.05 3.36C56.97 3.36 55.75 4.61 55.75 6.72C55.75 8.82 56.97 10.05 59.05 10.05ZM59.05 8.82C58.00 8.82 57.39 8.06 57.39 6.72C57.39 5.35 58.00 4.59 59.05 4.59C60.10 4.59 60.72 5.35 60.72 6.72C60.72 8.06 60.10 8.82 59.05 8.82ZM67.47 3.43C66.37 3.46 65.56 3.88 65.03 4.54L64.82 3.68C64.72 3.29 63.39 3.28 63.39 3.81L63.39 9.63C63.39 10.19 65.04 10.19 65.04 9.63L65.04 5.94C65.69 5.25 66.35 5.04 67.16 5.00C67.65 4.98 67.98 3.42 67.47 3.43ZM74.47 8.50C73.63 8.79 73.21 8.16 72.80 7.50C72.62 7.20 72.44 6.89 72.23 6.65C73.18 5.80 74.00 4.90 74.87 3.81C75.29 3.28 73.47 3.26 73.04 3.81C72.10 4.96 71.44 5.60 70.41 6.43L70.41 0.63C70.41-0.03 68.77 0.67 68.77 1.33L68.77 9.63C68.77 10.19 70.41 10.19 70.41 9.63L70.41 8.12C70.67 7.92 70.91 7.74 71.16 7.55C71.41 7.84 71.64 8.19 71.88 8.54C72.46 9.48 73.08 10.39 74.51 9.90C75.10 9.69 75.03 8.29 74.47 8.50Z"></path></g><!----><!----></svg>